<svg width="16" height="16" viewBox="0 0 16 16" fill="none" xmlns="http://www.w3.org/2000/svg">
<path d="M4.64664 14.3541C4.60015 14.3077 4.56327 14.2526 4.53811 14.1919C4.51295 14.1312 4.5 14.0661 4.5 14.0004C4.5 13.9347 4.51295 13.8696 4.53811 13.8089C4.56327 13.7482 4.60015 13.6931 4.64664 13.6466L7.64664 10.6466C7.69308 10.6002 7.74822 10.5633 7.80892 10.5381C7.86962 10.513 7.93469 10.5 8.00039 10.5C8.0661 10.5 8.13116 10.513 8.19186 10.5381C8.25256 10.5633 8.30771 10.6002 8.35414 10.6466L11.3541 13.6466C11.448 13.7405 11.5007 13.8677 11.5007 14.0004C11.5007 14.1331 11.448 14.2603 11.3541 14.3541C11.2603 14.448 11.1331 14.5007 11.0004 14.5007C10.8677 14.5007 10.7405 14.448 10.6466 14.3541L8.00039 11.7073L5.35414 14.3541C5.30771 14.4006 5.25256 14.4375 5.19186 14.4627C5.13116 14.4878 5.0661 14.5008 5.00039 14.5008C4.93468 14.5008 4.86962 14.4878 4.80892 14.4627C4.74822 14.4375 4.69308 14.4006 4.64664 14.3541ZM10.6465 1.64653L8.00028 4.2934L5.35403 1.64653C5.26021 1.55271 5.13296 1.5 5.00028 1.5C4.8676 1.5 4.74035 1.55271 4.64653 1.64653C4.55271 1.74035 4.5 1.8676 4.5 2.00028C4.5 2.13296 4.55271 2.26021 4.64653 2.35403L7.64653 5.35403C7.69297 5.40052 7.74811 5.4374 7.80881 5.46256C7.86951 5.48772 7.93457 5.50067 8.00028 5.50067C8.06599 5.50067 8.13105 5.48772 8.19175 5.46256C8.25245 5.4374 8.30759 5.40052 8.35403 5.35403L11.354 2.35403C11.4478 2.26021 11.5006 2.13296 11.5006 2.00028C11.5006 1.8676 11.4478 1.74035 11.354 1.64653C11.2602 1.55271 11.133 1.5 11.0003 1.5C10.8676 1.5 10.7403 1.55271 10.6465 1.64653Z" fill="#C4C4C4"/>
</svg>
