<svg width="16" height="16" viewBox="0 0 16 16" fill="none" xmlns="http://www.w3.org/2000/svg">
<path d="M8 10.5C8.69036 10.5 9.25 11.0596 9.25 11.75C9.25 12.4404 8.69036 13 8 13C7.30964 13 6.75 12.4404 6.75 11.75C6.75 11.0596 7.30964 10.5 8 10.5ZM8 6.75C8.69036 6.75 9.25 7.30964 9.25 8C9.25 8.69036 8.69036 9.25 8 9.25C7.30964 9.25 6.75 8.69036 6.75 8C6.75 7.30964 7.30964 6.75 8 6.75ZM8 3C8.69036 3 9.25 3.55964 9.25 4.25C9.25 4.94036 8.69036 5.5 8 5.5C7.30964 5.5 6.75 4.94036 6.75 4.25C6.75 3.55964 7.30964 3 8 3Z" fill="#C4C4C4"/>
</svg>
