<svg width="16" height="16" viewBox="0 0 16 16" fill="none" xmlns="http://www.w3.org/2000/svg">
<path d="M13.4859 7.38605C13.467 7.30591 13.4286 7.23169 13.374 7.16998C13.3195 7.10827 13.2506 7.06097 13.1734 7.0323L9.57279 5.68168L10.489 1.09855C10.5098 0.992063 10.4953 0.881717 10.4479 0.784164C10.4004 0.68661 10.3225 0.607142 10.2259 0.557751C10.1293 0.50836 10.0193 0.491727 9.91239 0.510361C9.80552 0.528995 9.7076 0.581885 9.63342 0.66105L2.63342 8.16105C2.57657 8.22096 2.53544 8.29401 2.51371 8.37369C2.49198 8.45337 2.49033 8.5372 2.5089 8.61767C2.52747 8.69815 2.56569 8.77277 2.62013 8.83487C2.67458 8.89697 2.74356 8.94462 2.82092 8.97355L6.42279 10.3242L5.50904 14.9023C5.4883 15.0088 5.50275 15.1191 5.55021 15.2167C5.59768 15.3142 5.67559 15.3937 5.77219 15.4431C5.86878 15.4925 5.97882 15.5091 6.08569 15.4905C6.19257 15.4719 6.29049 15.419 6.36467 15.3398L13.3647 7.8398C13.4205 7.77988 13.4607 7.70717 13.4819 7.62805C13.503 7.54893 13.5044 7.46583 13.4859 7.38605ZM6.83467 13.3754L7.48904 10.1017C7.51246 9.98557 7.49391 9.86492 7.43668 9.76122C7.37945 9.65752 7.28726 9.5775 7.17654 9.53543L3.87404 8.2948L9.16279 2.62855L8.50904 5.9023C8.48562 6.01841 8.50418 6.13906 8.56141 6.24276C8.61864 6.34646 8.71083 6.42647 8.82154 6.46855L12.1215 7.70605L6.83467 13.3754Z" fill="#C4C4C4"/>
</svg>
