<svg width="24" height="24" viewBox="0 0 24 24" fill="none" xmlns="http://www.w3.org/2000/svg">
<path d="M12.9576 7.94638L14.1564 4.74969C14.1888 4.66317 14.3112 4.66317 14.3436 4.74969L15.5424 7.94637C16.1508 9.56891 17.4311 10.8492 19.0536 11.4576L22.2503 12.6564C22.3368 12.6888 22.3368 12.8112 22.2503 12.8436L19.0536 14.0424C17.4311 14.6508 16.1508 15.9311 15.5424 17.5536L14.3436 20.7503C14.3112 20.8368 14.1888 20.8368 14.1564 20.7503L12.9576 17.5536C12.3492 15.9311 11.0689 14.6508 9.44638 14.0424L6.24969 12.8436C6.16317 12.8112 6.16317 12.6888 6.24969 12.6564L9.44637 11.4576C11.0689 10.8492 12.3492 9.56892 12.9576 7.94638Z" fill="#C4C4C4"/>
<path d="M4.89686 4.04972L5.16481 2.73526C5.1866 2.62836 5.33946 2.62864 5.36085 2.73562L5.62149 4.03884C5.85901 5.22642 6.7873 6.15472 7.97489 6.39224L9.27343 6.65194C9.38062 6.67338 9.38062 6.82662 9.27344 6.84806L7.97489 7.10777C6.78731 7.34528 5.85901 8.27358 5.6215 9.46116L5.36085 10.7644C5.33946 10.8714 5.1866 10.8716 5.16481 10.7647L4.89686 9.45028C4.65592 8.26834 3.7305 7.34565 2.54785 7.1082L1.25206 6.84804C1.14497 6.82654 1.14497 6.67346 1.25206 6.65196L2.54784 6.3918C3.7305 6.15436 4.65592 5.23167 4.89686 4.04972Z" fill="#C4C4C4"/>
</svg>
